<?xml version="1.0" encoding="iso-8859-1"?>
<!-- Generator: Adobe Illustrator 19.0.0, SVG Export Plug-In . SVG Version: 6.00 Build 0)  -->
<svg version="1.1" id="Layer_1" xmlns="http://www.w3.org/2000/svg" xmlns:xlink="http://www.w3.org/1999/xlink" x="0px" y="0px"
	 viewBox="0 0 512 512" style="enable-background:new 0 0 512 512;" xml:space="preserve">
<path style="fill:#EDEDED;" d="M213.393,447.424c10.19,12.166,25.495,19.903,42.607,19.903c17.111,0,32.417-7.737,42.606-19.903
	v-80.09h-87.047L213.393,447.424z"/>
<path style="fill:#D8D8DA;" d="M256,367.335v99.993c17.111,0,32.417-7.737,42.606-19.903v-80.09H256z"/>
<path style="fill:#EDEDED;" d="M180.978,181.839c-4.761-16.503-18.992-38.029-47.711-66.748C95.489,77.313,48.822,53.849,0,44.674
	c9.175,48.822,32.64,95.489,70.418,133.267c28.202,28.202,49.467,42.434,65.852,47.444"/>
<path style="fill:#D8D8DA;" d="M374.709,225.687c16.52-4.725,38.083-18.955,66.873-47.745
	C479.361,140.164,502.825,93.496,512,44.673c-48.823,9.175-95.488,32.641-133.267,70.419
	c-28.202,28.201-42.432,49.466-47.443,65.852"/>
<path style="fill:#F8F8F9;" d="M411.544,300.266c0-85.905-69.639-155.544-155.544-155.544s-155.544,69.639-155.544,155.544
	c0,15.952,2.403,31.343,6.866,45.832c-4.399,9.747-6.866,20.552-6.866,31.94c0,42.952,34.82,77.772,77.772,77.772
	S256,420.991,256,378.038c0,42.952,34.82,77.772,77.772,77.772s77.772-34.82,77.772-77.772c0-11.388-2.468-22.194-6.866-31.94
	C409.141,331.609,411.544,316.218,411.544,300.266z"/>
<path style="fill:#EDEDED;" d="M411.544,300.673c0-85.905-69.639-155.544-155.544-155.544v233.316
	c0,42.952,34.82,77.772,77.772,77.772s77.772-34.82,77.772-77.772c0-11.388-2.468-22.194-6.866-31.94
	C409.141,332.016,411.544,316.626,411.544,300.673z"/>
<path style="fill:#454449;" d="M317.107,339.152h-0.002c-12.251,0-22.218-9.968-22.218-22.221
	c0.004-12.255,9.973-22.221,22.221-22.221c12.252,0,22.221,9.968,22.221,22.221S329.359,339.152,317.107,339.152z"/>
<g>
	<path style="fill:#58575D;" d="M194.893,339.152h-0.002c-12.251,0-22.218-9.968-22.218-22.221
		c0.004-12.255,9.973-22.221,22.221-22.221c12.252,0,22.221,9.968,22.221,22.221S207.146,339.152,194.893,339.152z"/>
	<path style="fill:#58575D;" d="M291.553,350.263c-5.84,17.721-21.487,37.256-35.553,37.554
		c-14.066-0.299-29.713-19.834-35.553-37.554c-2.698-9.054,4.275-16.547,15.554-16.665c13.332,0,26.665,0,39.997,0
		C287.279,333.716,294.251,341.208,291.553,350.263z"/>
</g>
<path style="fill:#454449;" d="M275.999,333.597c-6.666,0-13.332,0-19.999,0v54.219c14.066-0.299,29.713-19.834,35.553-37.554
	C294.251,341.208,287.279,333.716,275.999,333.597z"/>
<g>
</g>
<g>
</g>
<g>
</g>
<g>
</g>
<g>
</g>
<g>
</g>
<g>
</g>
<g>
</g>
<g>
</g>
<g>
</g>
<g>
</g>
<g>
</g>
<g>
</g>
<g>
</g>
<g>
</g>
</svg>
